<!DOCTYPE svg PUBLIC "-//W3C//DTD SVG 1.1//EN" "http://www.w3.org/Graphics/SVG/1.1/DTD/svg11.dtd">
<!-- Uploaded to: SVG Repo, www.svgrepo.com, Transformed by: SVG Repo Mixer Tools -->
<svg fill="#ffffff" width="64px" height="64px" viewBox="-2.4 -2.4 28.80 28.80" xmlns="http://www.w3.org/2000/svg" stroke="#ffffff" stroke-width="0.00024000000000000003">
<g id="SVGRepo_bgCarrier" stroke-width="0">
<rect x="-2.4" y="-2.4" width="28.80" height="28.80" rx="14.4" fill="#d6d6d6" strokewidth="0"/>
</g>
<g id="SVGRepo_tracerCarrier" stroke-linecap="round" stroke-linejoin="round"/>
<g id="SVGRepo_iconCarrier">
<path d="M12,2A10,10,0,0,0,2,12a9.89,9.89,0,0,0,2.26,6.33l-2,2a1,1,0,0,0-.21,1.09A1,1,0,0,0,3,22h9A10,10,0,0,0,12,2Zm0,18H5.41l.93-.93a1,1,0,0,0,0-1.41A8,8,0,1,1,12,20Zm5-9H7a1,1,0,0,0,0,2H17a1,1,0,0,0,0-2Zm-2,4H9a1,1,0,0,0,0,2h6a1,1,0,0,0,0-2ZM9,9h6a1,1,0,0,0,0-2H9A1,1,0,0,0,9,9Z"/>
</g>
</svg>